<svg width="198" height="20" viewBox="0 0 198 20" fill="none" xmlns="http://www.w3.org/2000/svg">
<path d="M0.672 0.111999H11.328V1.84H2.448V8.992H9.84V10.744H2.448V19.672H0.672V0.111999ZM19.512 1.576H21.264V4.816H19.512V1.576ZM19.512 6.04H21.264V19.672H19.512V6.04ZM29.472 6.04H31.248V7.528H32.472V6.04H37.176V7.528H38.64V8.992H40.128V19.672H38.4V9.256H36.912V7.768H32.712V9.256H31.248V19.672H29.472V6.04ZM43.872 13.456H45.384V11.968H51.312V7.768H45.648V10.744H43.872V7.528H45.384V6.04H51.576V7.528H53.04V17.896H54.528V19.672H52.8V18.16H50.088V19.672H45.384V18.16H43.872V13.456ZM49.824 17.896V16.432H51.312V13.72H45.648V17.896H49.824ZM58.272 6.04H60.048V7.528H61.272V6.04H65.976V7.528H67.44V8.992H68.928V19.672H67.2V9.256H65.712V7.768H61.512V9.256H60.048V19.672H58.272V6.04ZM74.184 16.672H72.672V8.992H74.184V7.528H75.672V6.04H80.376V7.528H81.84V8.992H83.328V10.744H81.6V9.256H80.112V7.768H75.912V9.256H74.448V16.432H75.912V17.896H80.112V16.432H81.6V14.944H83.328V16.672H81.84V18.16H80.376V19.672H75.672V18.16H74.184V16.672ZM88.584 16.672H87.072V8.992H88.584V7.528H90.072V6.04H94.776V7.528H96.24V8.992H97.728V13.72H88.848V16.432H90.312V17.896H94.512V16.432H96V14.944H97.728V16.672H96.24V18.16H94.776V19.672H90.072V18.16H88.584V16.672ZM96 11.968V9.256H94.512V7.768H90.312V9.256H88.848V11.968H96ZM117.384 16.672H115.872V13.456H117.648V16.432H119.112V17.896H123.312V16.432H124.8V12.232H123.312V10.744H118.872V9.256H117.384V7.768H115.872V3.064H117.384V1.576H118.872V0.111999H123.576V1.576H125.04V3.064H126.528V6.304H124.8V3.328H123.312V1.84H119.112V3.328H117.648V7.528H119.112V8.992H123.576V10.48H125.04V11.968H126.528V16.672H125.04V18.16H123.576V19.672H118.872V18.16H117.384V16.672ZM131.784 16.672H130.272V8.992H131.784V7.528H133.272V6.04H137.976V7.528H139.44V8.992H140.928V16.672H139.44V18.16H137.976V19.672H133.272V18.16H131.784V16.672ZM133.512 16.432V17.896H137.712V16.432H139.2V9.256H137.712V7.768H133.512V9.256H132.048V16.432H133.512ZM149.112 1.576H150.864V19.672H149.112V1.576ZM162.072 13.72H160.584V10.744H159.072V6.04H160.848V10.48H162.312V13.456H163.8V16.432H165.024V13.456H166.512V10.48H168V6.04H169.728V10.744H168.24V13.72H166.776V16.672H165.288V19.672H163.536V16.672H162.072V13.72ZM174.984 16.672H173.472V8.992H174.984V7.528H176.472V6.04H181.176V7.528H182.64V8.992H184.128V13.72H175.248V16.432H176.712V17.896H180.912V16.432H182.4V14.944H184.128V16.672H182.64V18.16H181.176V19.672H176.472V18.16H174.984V16.672ZM182.4 11.968V9.256H180.912V7.768H176.712V9.256H175.248V11.968H182.4ZM189.36 6.04H191.088V7.528H192.312V6.04H197.016V7.768H192.576V9.256H191.088V19.672H189.36V6.04Z" fill="#FF6A6A"/>
</svg>
