<svg width="14" height="26" viewBox="0 0 14 26" fill="none" xmlns="http://www.w3.org/2000/svg">
<path d="M11.6238 5.99433L5.21114 4.2995C5.10698 4.27175 4.99591 4.28682 4.90309 4.34118C4.80985 4.39549 4.74221 4.48438 4.71462 4.58834L0.889943 19.0602C0.871905 19.1288 0.871905 19.201 0.890349 19.2696L2.6211 25.6994C2.65896 25.8399 2.76906 25.9494 2.9097 25.9867C2.94402 25.9958 2.97872 26.0002 3.01345 26.0002C3.12058 26.0002 3.22511 25.9577 3.30226 25.8795L7.98388 21.1446C8.03385 21.0942 8.06956 21.0315 8.0878 20.9629L11.9127 6.49101C11.9702 6.27403 11.8405 6.05186 11.6238 5.99433ZM3.22194 24.8052L2.69061 22.8314L4.65373 23.3571L3.22194 24.8052ZM7.33006 20.6503L5.3112 22.6921L2.44665 21.925L1.70326 19.1633L5.39639 5.18898L11.0232 6.6759L7.33006 20.6503Z" fill="#FFE5E5"/>
<path d="M12.8212 1.72395L6.34977 0.0136329C6.24544 -0.0145203 6.13453 0.000551611 6.0417 0.0553141C5.94847 0.10963 5.88083 0.198517 5.85324 0.302477L5.14531 2.98235C5.08795 3.19936 5.2173 3.42195 5.43432 3.47907L11.9056 5.18934C11.9397 5.19848 11.9746 5.20287 12.0095 5.20287C12.0805 5.20287 12.1511 5.18422 12.2138 5.1477C12.3071 5.09334 12.3749 5.0045 12.4022 4.90013L13.11 2.22026C13.1671 2.00365 13.0378 1.78106 12.8212 1.72395ZM11.7203 4.2999L6.03455 2.7975L6.53505 0.903117L12.2209 2.40551L11.7203 4.2999Z" fill="#FFE5E5"/>
<path d="M5.91332 17.9129C5.94802 17.922 5.98296 17.9264 6.01724 17.9264C6.19717 17.9264 6.36162 17.8062 6.4098 17.6241L8.92449 8.10932C8.98202 7.89234 8.8523 7.67016 8.63565 7.61264C8.41985 7.55629 8.19608 7.68442 8.13896 7.90144L5.62432 17.4162C5.56696 17.6332 5.69631 17.8558 5.91332 17.9129Z" fill="#FFE5E5"/>
</svg>
