<svg width="22" height="26" viewBox="0 0 22 26" fill="none" xmlns="http://www.w3.org/2000/svg">
<path d="M21.5511 5.04167H15.2333V1.68963C15.2333 0.757957 14.4754 0 13.5437 0H8.4558C7.52413 0 6.76617 0.757957 6.76617 1.68963V5.04123H0.448854C0.210318 5.04123 0.0167236 5.23483 0.0167236 5.47337C0.0167236 5.7119 0.210318 5.9055 0.448854 5.9055H1.33126V23.4068C1.33126 24.8367 2.49413 25.9996 3.92405 25.9996H18.0763C19.5062 25.9996 20.6691 24.8367 20.6691 23.4068V5.9055H21.5511C21.7896 5.9055 21.9832 5.7119 21.9832 5.47337C21.9832 5.23483 21.7896 5.04167 21.5511 5.04167ZM7.63043 1.68963C7.63043 1.2346 8.00077 0.864261 8.4558 0.864261H13.5437C13.9987 0.864261 14.3691 1.2346 14.3691 1.68963V5.04123H7.63043V1.68963ZM19.8044 23.4072C19.8044 24.3605 19.0292 25.1357 18.0759 25.1357H3.92362C2.97034 25.1357 2.19509 24.3605 2.19509 23.4072V5.90593H19.8044V23.4072ZM14.5311 19.9441V9.87289C14.5311 9.63435 14.7247 9.44076 14.9633 9.44076C15.2018 9.44076 15.3954 9.63435 15.3954 9.87289V19.9441C15.3954 20.1827 15.2018 20.3763 14.9633 20.3763C14.7247 20.3763 14.5311 20.1831 14.5311 19.9441ZM10.5676 19.9441V9.87289C10.5676 9.63435 10.7612 9.44076 10.9998 9.44076C11.2383 9.44076 11.4319 9.63435 11.4319 9.87289V19.9441C11.4319 20.1827 11.2383 20.3763 10.9998 20.3763C10.7612 20.3763 10.5676 20.1831 10.5676 19.9441ZM6.60412 19.9441V9.87289C6.60412 9.63435 6.79772 9.44076 7.03625 9.44076C7.27479 9.44076 7.46838 9.63435 7.46838 9.87289V19.9441C7.46838 20.1827 7.27479 20.3763 7.03625 20.3763C6.79772 20.3763 6.60412 20.1831 6.60412 19.9441Z" fill="#FF6A6A"/>
</svg>
