<svg width="16" height="18" viewBox="0 0 16 18" fill="none" xmlns="http://www.w3.org/2000/svg">
<path d="M3.15377 4.84618L4.88454 4.84618L4.88454 12.4616L4.88454 15.0577C4.88462 16.6799 6.20561 18 7.82963 18L8.17035 18C9.79429 18 11.1153 16.6799 11.1153 15.0577L11.1153 12.4616L11.1153 4.84618L12.8461 4.84618C14.1821 4.84618 15.2692 3.75908 15.2692 2.42309C15.2692 1.08711 14.1821 1.81231e-06 12.8461 1.69552e-06L10.7692 1.51395e-06L5.23083 1.02976e-06L3.15394 8.48196e-07C1.81795 7.31401e-07 0.730848 1.08711 0.730848 2.42309C0.730848 3.75908 1.81778 4.84618 3.15377 4.84618ZM11.1153 0.692325L12.8461 0.692325C13.8004 0.692325 14.5769 1.46878 14.5769 2.42309C14.5769 3.37741 13.8004 4.15386 12.8461 4.15386L11.1154 4.15386L11.1154 0.692325L11.1153 0.692325ZM10.423 15.0577C10.423 16.2391 9.50625 17.2087 8.34607 17.2989L8.34607 16.9616C8.34607 16.7702 8.19126 16.6154 7.99995 16.6154C7.80864 16.6154 7.65383 16.7702 7.65383 16.9616L7.65383 17.2988C6.49365 17.2086 5.57694 16.239 5.57694 15.0576L5.57694 12.8076L10.423 12.8076L10.423 15.0577ZM5.57686 4.49998L5.57686 0.692325L10.423 0.692325L10.423 4.49998L10.423 12.1154L5.57677 12.1154L5.57677 4.49998L5.57686 4.49998ZM3.15377 0.692325L4.88454 0.692325L4.88454 4.15386L3.15377 4.15386C2.19945 4.15386 1.423 3.3774 1.423 2.42309C1.423 1.46878 2.19954 0.692324 3.15377 0.692325Z" fill="#2a2a2a"/>
</svg>
